HIERARCHY
ROOT Hips
{
	OFFSET -0.001795 -0.223333 0.028219
	CHANNELS 6 Xposition Yposition Zposition Zrotation Yrotation Xrotation 
	JOINT LeftUpLeg
	{
		OFFSET 0.069520 -0.091406 -0.006815
		CHANNELS 3 Zrotation Yrotation Xrotation
		JOINT LeftLeg
		{
			OFFSET 0.034277 -0.375199 -0.004496
			CHANNELS 3 Zrotation Yrotation Xrotation
			JOINT LeftFoot
			{
				OFFSET -0.013596 -0.397961 -0.043693
				CHANNELS 3 Zrotation Yrotation Xrotation
				JOINT LeftToe
				{
					OFFSET 0.026358 -0.055791 0.119288
					CHANNELS 3 Zrotation Yrotation Xrotation
					End Site
					{
						OFFSET 0.000000 0.000000 0.000000
					}
				}
			}
		}
	}
	JOINT RightUpLeg
	{
		OFFSET -0.067670 -0.090522 -0.004320
		CHANNELS 3 Zrotation Yrotation Xrotation
		JOINT RightLeg
		{
			OFFSET -0.038290 -0.382569 -0.008850
			CHANNELS 3 Zrotation Yrotation Xrotation
			JOINT RightFoot
			{
				OFFSET 0.015774 -0.398415 -0.042312
				CHANNELS 3 Zrotation Yrotation Xrotation
				JOINT RightToe
				{
					OFFSET -0.025372 -0.048144 0.123348
					CHANNELS 3 Zrotation Yrotation Xrotation
					End Site
					{
						OFFSET 0.000000 0.000000 0.000000
					}
				}
			}
		}
	}
	JOINT Spine
	{
		OFFSET -0.002533 0.108963 -0.026696
		CHANNELS 3 Zrotation Yrotation Xrotation
		JOINT Spine1
		{
			OFFSET 0.005487 0.135180 0.001092
			CHANNELS 3 Zrotation Yrotation Xrotation
			JOINT Spine2
			{
				OFFSET 0.001457 0.052922 0.025425
				CHANNELS 3 Zrotation Yrotation Xrotation
				JOINT Neck
				{
					OFFSET -0.002778 0.213870 -0.042857
					CHANNELS 3 Zrotation Yrotation Xrotation
					JOINT Head
					{
						OFFSET 0.005152 0.064970 0.051349
						CHANNELS 3 Zrotation Yrotation Xrotation
						End Site
						{
							OFFSET 0.000000 0.000000 0.000000
						}
					}
				}
				JOINT LeftShoulder
				{
					OFFSET 0.078845 0.121749 -0.034090
					CHANNELS 3 Zrotation Yrotation Xrotation
					JOINT LeftArm
					{
						OFFSET 0.090977 0.030469 -0.008868
						CHANNELS 3 Zrotation Yrotation Xrotation
						JOINT LeftForeArm
						{
							OFFSET 0.259612 -0.012772 -0.027456
							CHANNELS 3 Zrotation Yrotation Xrotation
							JOINT LeftHand
							{
								OFFSET 0.249234 0.008986 -0.001171
								CHANNELS 3 Zrotation Yrotation Xrotation
								End Site
								{
									OFFSET 0.000000 0.000000 0.000000
								}
							}
						}
					}
				}
				JOINT RightShoulder
				{
					OFFSET -0.081759 0.118833 -0.038615
					CHANNELS 3 Zrotation Yrotation Xrotation
					JOINT RightArm
					{
						OFFSET -0.096012 0.032551 -0.009143
						CHANNELS 3 Zrotation Yrotation Xrotation
						JOINT RightForeArm
						{
							OFFSET -0.253742 -0.013329 -0.021401
							CHANNELS 3 Zrotation Yrotation Xrotation
							JOINT RightHand
							{
								OFFSET -0.255298 0.007772 -0.005559
								CHANNELS 3 Zrotation Yrotation Xrotation
								End Site
								{
									OFFSET 0.000000 0.000000 0.000000
								}
							}
						}
					}
				}
			}
		}
	}
}
MOTION
Frames: 11
Frame Time: 0.05000000
0.000000 0.951497 0.000000 0.633011 11.302562 -5.009270 2.395429 -2.295304 -24.043090 -8.287378 0.761984 29.507509 5.259080 13.761976 10.602025 0.000000 0.000000 0.000000 1.509925 1.219317 -11.522691 5.980758 -1.937077 23.155318 -7.223777 -17.657297 5.555943 0.000000 0.000000 0.000000 -6.988229 -0.012554 12.101179 3.343075 -0.139141 -21.239722 0.009558 -1.642766 22.912881 -0.673618 2.268968 -17.349036 0.000000 0.000000 0.000000 -18.243131 -0.392682 -2.196540 -55.768656 -16.626708 -0.727371 -16.214851 -59.206885 11.857935 0.000000 0.000000 0.000000 11.795938 4.956165 2.514919 63.521222 -0.493204 -8.316056 9.549826 36.898198 5.450998 0.000000 0.000000 0.000000 
-0.004037 0.953443 -0.046885 0.821156 13.284259 -4.612835 3.454513 -1.782584 -20.665071 -11.650294 1.483987 40.518214 6.384383 13.820864 2.745711 0.000000 0.000000 0.000000 0.424820 1.259732 -13.869597 6.257981 -2.101360 22.010028 -6.630983 -16.202265 6.381641 0.000000 0.000000 0.000000 -7.643832 0.004161 9.516631 4.144530 -0.383184 -19.950197 -0.318685 -2.146065 20.273162 1.156582 0.891011 -15.029735 0.000000 0.000000 0.000000 -15.306089 -0.874512 -1.744129 -57.958563 -22.871744 2.634092 -23.659377 -64.697825 17.674960 0.000000 0.000000 0.000000 8.665345 3.864119 1.852032 67.733824 -8.621805 -12.748702 17.387396 37.254765 8.103010 0.000000 0.000000 0.000000 
-0.007136 0.948743 -0.096536 0.316549 14.856800 -5.095086 5.992283 -0.869966 -13.514259 -14.737617 2.368356 49.242775 6.390483 13.536361 1.960672 0.000000 0.000000 0.000000 -0.177464 1.286874 -16.168569 6.744064 -2.345903 21.413537 -8.497465 -19.113417 12.481767 0.000000 0.000000 0.000000 -5.112422 -0.129715 7.913201 3.379993 -0.041680 -22.132718 -2.130728 -4.474696 23.667969 1.936137 0.400109 -17.258809 0.000000 0.000000 0.000000 -13.931786 -2.893074 -0.338443 -56.351637 -27.062796 4.261552 -15.266469 -69.300201 13.916272 0.000000 0.000000 0.000000 7.888741 2.705145 1.280814 66.528564 -13.643117 -15.705888 19.460754 33.592372 7.777306 0.000000 0.000000 0.000000 
-0.009224 0.936264 -0.150580 -0.012695 16.289435 -5.162960 6.490863 -0.393186 -4.668404 -12.992873 0.853677 52.744459 3.712669 7.968857 0.967266 0.000000 0.000000 0.000000 -0.576125 1.292809 -18.648751 8.169251 -2.863775 20.463460 -10.259137 -21.821255 13.986705 0.000000 0.000000 0.000000 -4.891508 -0.128597 6.913176 4.824580 -0.364353 -23.154796 -2.439490 -7.081782 23.989408 1.296462 0.561298 -17.216630 0.000000 0.000000 0.000000 -13.681678 -0.664459 -1.066041 -59.629301 -28.523006 5.541422 -14.075561 -75.575710 15.514781 0.000000 0.000000 0.000000 8.257314 2.511177 1.063842 66.450466 -19.011800 -18.907368 21.992765 32.256152 8.037525 0.000000 0.000000 0.000000 
-0.011752 0.922424 -0.216451 0.379845 17.104399 -5.040550 4.562266 -0.064796 4.045389 -8.457835 -1.577059 49.881759 0.054364 2.431983 4.258831 0.000000 0.000000 0.000000 -2.048591 1.035233 -21.146280 8.922095 -2.704881 16.527048 -12.795049 -25.197261 17.285996 0.000000 0.000000 0.000000 -6.373504 -0.086780 6.125553 6.875585 -0.972243 -22.376874 -2.282726 -8.592569 23.910404 0.386657 0.996297 -17.257820 0.000000 0.000000 0.000000 -12.302587 -2.000751 -0.120893 -60.643139 -31.040973 7.222292 8.584735 -81.613992 -1.735312 0.000000 0.000000 0.000000 8.881565 1.635515 0.555656 66.376252 -21.618546 -20.487197 20.067443 32.065236 7.305802 0.000000 0.000000 0.000000 
-0.016572 0.912349 -0.295042 0.560308 17.570810 -4.126837 1.789420 0.260601 7.298087 -3.704280 -3.216546 43.163930 -2.521820 -3.104882 3.029533 0.000000 0.000000 0.000000 -2.557395 0.916914 -25.188271 7.414297 -1.854389 12.417965 -12.172715 -23.407927 20.095676 0.000000 0.000000 0.000000 -6.182212 -0.078352 6.038102 6.917093 -1.046400 -21.256615 -2.282070 -10.987750 23.441758 0.326769 0.785488 -18.424375 0.000000 0.000000 0.000000 -11.076400 -0.184205 -0.561165 -62.178005 -32.496098 8.699927 48.015332 -84.762902 -37.078705 0.000000 0.000000 0.000000 7.907764 0.929702 0.020124 67.318875 -21.563579 -20.993562 18.149559 31.533551 6.439856 0.000000 0.000000 0.000000 
-0.024358 0.904326 -0.382105 0.128807 17.500932 -4.236217 -0.052640 0.447936 7.484684 -1.691998 -3.161939 36.674547 0.789982 -1.535114 -4.748786 0.000000 0.000000 0.000000 -3.165363 0.699217 -28.714390 7.115177 -1.636673 10.854502 -10.468595 -20.488346 21.622656 0.000000 0.000000 0.000000 -5.582552 -0.133704 8.910451 8.348465 -1.443061 -21.592435 -2.470794 -10.094031 23.243807 0.111998 1.137776 -19.485651 0.000000 0.000000 0.000000 -11.145601 -0.722144 -0.438036 -59.261841 -33.514990 8.522700 119.162578 -85.873223 -108.289572 0.000000 0.000000 0.000000 8.600304 1.380053 0.280079 68.478023 -19.079142 -19.860927 16.432478 32.320979 6.232763 0.000000 0.000000 0.000000 
-0.034832 0.898855 -0.467342 -0.358723 15.629519 -4.578463 -1.307795 0.408869 4.819717 -3.283536 -2.026739 34.768273 5.228136 4.055660 -12.559639 0.000000 0.000000 0.000000 -3.571666 0.685463 -31.744069 9.278321 -2.992249 19.763212 -9.912909 -20.938283 13.838760 0.000000 0.000000 0.000000 -4.933445 -0.207042 11.010125 8.992981 -1.643741 -21.833373 -1.445659 -7.903337 24.429214 -0.559183 1.857203 -21.657873 0.000000 0.000000 0.000000 -11.605013 -1.191906 -0.355092 -55.679470 -32.606785 7.011582 147.040825 -83.181077 -136.047012 0.000000 0.000000 0.000000 8.258864 4.072799 1.572508 68.702811 -15.353667 -17.790443 15.520951 34.031139 6.449216 0.000000 0.000000 0.000000 
-0.047513 0.898776 -0.545766 -0.435476 14.538335 -6.128662 -1.207086 0.146000 1.551096 -5.862314 -0.882011 34.797643 8.272623 11.106024 -15.209640 0.000000 0.000000 0.000000 -4.945976 0.360711 -31.771343 11.966777 -5.944256 33.471836 -11.063816 -24.233344 7.821081 0.000000 0.000000 0.000000 -3.992640 -0.367048 13.200054 8.597802 -1.623445 -21.126503 -0.808062 -6.250070 25.148247 -0.531491 2.017297 -22.091383 0.000000 0.000000 0.000000 -13.442481 -1.547054 -0.452944 -52.040351 -29.720327 4.808283 173.981504 -82.801464 -166.632605 0.000000 0.000000 0.000000 8.177456 6.525578 2.719363 69.354197 -9.830979 -14.715639 11.597420 36.045922 5.753909 0.000000 0.000000 0.000000 
-0.063589 0.904197 -0.618730 -0.169798 13.589715 -6.345088 -1.647486 -0.203060 -2.259803 -7.026469 -0.220289 33.637754 9.562204 15.408626 -13.763962 0.000000 0.000000 0.000000 -5.325953 0.433504 -27.910559 13.031322 -9.289687 47.880209 -10.810056 -24.690335 4.290917 0.000000 0.000000 0.000000 -3.568373 -0.393259 13.258544 9.228548 -1.952651 -19.904647 -1.163573 -3.829433 25.284551 0.500252 1.689594 -22.233065 0.000000 0.000000 0.000000 -14.306514 -1.748678 -0.758133 -49.673161 -25.075348 2.424306 -154.366225 -80.697887 155.441474 0.000000 0.000000 0.000000 10.642832 7.677117 3.605867 66.973288 -4.767496 -11.261785 7.777786 38.073518 5.013086 0.000000 0.000000 0.000000 
-0.082563 0.910588 -0.688861 0.200032 12.390412 -4.763229 -2.067932 -0.891867 -8.326059 -7.623519 0.203317 33.110099 10.393481 18.995862 -9.072386 0.000000 0.000000 0.000000 -5.948993 0.443091 -21.254259 11.157681 -9.863952 57.479720 -7.662573 -18.515764 3.653457 0.000000 0.000000 0.000000 -4.204974 -0.222780 10.946657 8.655963 -1.843193 -19.286532 -0.208767 -4.003241 24.964098 0.617797 1.364781 -20.573961 0.000000 0.000000 0.000000 -13.339244 -0.496846 -1.100697 -49.008154 -19.203923 -0.061442 -130.830289 -78.663792 127.283801 0.000000 0.000000 0.000000 9.842051 9.398303 4.195033 66.367136 -2.055775 -9.641911 6.978600 40.979857 5.125434 0.000000 0.000000 0.000000 
